<mxfile host="app.diagrams.net" modified="2024-04-03T13:58:15.723Z" agent="Mozilla/5.0 (X11; Linux x86_64) AppleWebKit/537.36 (KHTML, like Gecko) Chrome/123.0.0.0 Safari/537.36" etag="Hn1GdR1_GxBCOqIm7YA8" version="24.2.1" type="device" pages="2">
  <diagram name="uc-network" id="OPhyT8jhqSgWvVwYSWGB">
    <mxGraphModel dx="1317" dy="678" grid="1" gridSize="10" guides="1" tooltips="1" connect="1" arrows="1" fold="1" page="1" pageScale="1" pageWidth="1169" pageHeight="827" math="0" shadow="0">
      <root>
        <mxCell id="0" />
        <mxCell id="1" parent="0" />
        <mxCell id="RLzSlAPk3jwJpsq7z313-33" value="&lt;p style=&quot;margin:0px;margin-top:4px;margin-left:10px;text-align:left;&quot;&gt;&lt;b&gt;uc&lt;/b&gt;   Network Features v0.0.1&lt;/p&gt;" style="html=1;shape=mxgraph.sysml.package;align=left;spacingLeft=5;verticalAlign=top;spacingTop=-3;labelX=172.67;html=1;overflow=fill;fontFamily=Comic Sans MS;fontSize=11;labelBackgroundColor=none;fillColor=default;strokeColor=default;fontColor=default;sketch=1;curveFitting=1;jiggle=2;" parent="1" vertex="1">
          <mxGeometry width="910" height="460" as="geometry" />
        </mxCell>
        <mxCell id="RLzSlAPk3jwJpsq7z313-40" value="System Node Scope" style="rounded=0;whiteSpace=wrap;html=1;fontFamily=Comic Sans MS;fontSize=10;labelBackgroundColor=default;dashed=1;verticalAlign=top;align=left;fontStyle=2;sketch=1;curveFitting=1;jiggle=2;fillColor=none;strokeColor=#82b366;" parent="1" vertex="1">
          <mxGeometry x="160" y="30" width="590" height="420" as="geometry" />
        </mxCell>
        <mxCell id="RLzSlAPk3jwJpsq7z313-41" value="System Node Scope" style="rounded=0;whiteSpace=wrap;html=1;fontFamily=Comic Sans MS;fontSize=10;labelBackgroundColor=default;dashed=1;verticalAlign=top;align=left;fontStyle=2;sketch=1;curveFitting=1;jiggle=2;fillColor=none;strokeColor=#9673a6;" parent="1" vertex="1">
          <mxGeometry x="760" y="30" width="140" height="420" as="geometry" />
        </mxCell>
        <mxCell id="RLzSlAPk3jwJpsq7z313-38" value="System Node Scope" style="rounded=0;whiteSpace=wrap;html=1;fontFamily=Comic Sans MS;fontSize=10;labelBackgroundColor=default;dashed=1;verticalAlign=top;align=left;fontStyle=2;sketch=1;curveFitting=1;jiggle=2;fillColor=none;strokeColor=#b85450;" parent="1" vertex="1">
          <mxGeometry x="10" y="30" width="140" height="420" as="geometry" />
        </mxCell>
        <mxCell id="RLzSlAPk3jwJpsq7z313-16" style="edgeStyle=none;rounded=0;orthogonalLoop=1;jettySize=auto;html=1;strokeColor=default;align=center;verticalAlign=middle;fontFamily=Comic Sans MS;fontSize=11;fontColor=default;labelBackgroundColor=default;endArrow=none;endFill=0;strokeWidth=2;sketch=1;curveFitting=1;jiggle=2;" parent="1" source="RLzSlAPk3jwJpsq7z313-4" target="RLzSlAPk3jwJpsq7z313-7" edge="1">
          <mxGeometry relative="1" as="geometry" />
        </mxCell>
        <mxCell id="RLzSlAPk3jwJpsq7z313-17" style="edgeStyle=none;rounded=0;orthogonalLoop=1;jettySize=auto;html=1;strokeColor=default;align=center;verticalAlign=middle;fontFamily=Comic Sans MS;fontSize=11;fontColor=default;labelBackgroundColor=default;endArrow=none;endFill=0;strokeWidth=2;sketch=1;curveFitting=1;jiggle=2;" parent="1" source="RLzSlAPk3jwJpsq7z313-4" target="RLzSlAPk3jwJpsq7z313-6" edge="1">
          <mxGeometry relative="1" as="geometry" />
        </mxCell>
        <mxCell id="RLzSlAPk3jwJpsq7z313-18" style="edgeStyle=none;rounded=0;orthogonalLoop=1;jettySize=auto;html=1;strokeColor=default;align=center;verticalAlign=middle;fontFamily=Comic Sans MS;fontSize=11;fontColor=default;labelBackgroundColor=default;endArrow=none;endFill=0;sketch=1;curveFitting=1;jiggle=2;strokeWidth=2;" parent="1" source="RLzSlAPk3jwJpsq7z313-4" target="RLzSlAPk3jwJpsq7z313-8" edge="1">
          <mxGeometry relative="1" as="geometry" />
        </mxCell>
        <mxCell id="RLzSlAPk3jwJpsq7z313-19" style="edgeStyle=none;rounded=0;orthogonalLoop=1;jettySize=auto;html=1;strokeColor=default;align=center;verticalAlign=middle;fontFamily=Comic Sans MS;fontSize=11;fontColor=default;labelBackgroundColor=default;endArrow=none;endFill=0;strokeWidth=2;sketch=1;curveFitting=1;jiggle=2;" parent="1" source="RLzSlAPk3jwJpsq7z313-4" target="RLzSlAPk3jwJpsq7z313-5" edge="1">
          <mxGeometry relative="1" as="geometry" />
        </mxCell>
        <mxCell id="RLzSlAPk3jwJpsq7z313-4" value="System Node" style="shape=umlActor;verticalLabelPosition=bottom;verticalAlign=top;html=1;outlineConnect=0;fontStyle=3;sketch=1;curveFitting=1;jiggle=2;fontFamily=Comic Sans MS;fillColor=#d5e8d4;strokeColor=#82b366;" parent="1" vertex="1">
          <mxGeometry x="360" y="354" width="30" height="60" as="geometry" />
        </mxCell>
        <mxCell id="RLzSlAPk3jwJpsq7z313-5" value="Connect to&lt;div&gt;Network&lt;/div&gt;" style="ellipse;whiteSpace=wrap;html=1;fontStyle=1;strokeWidth=2;sketch=1;curveFitting=1;jiggle=2;fontFamily=Comic Sans MS;fillColor=none;strokeColor=#82b366;" parent="1" vertex="1">
          <mxGeometry x="180" y="60" width="120" height="80" as="geometry" />
        </mxCell>
        <mxCell id="RLzSlAPk3jwJpsq7z313-6" value="Get Data" style="ellipse;whiteSpace=wrap;html=1;fontStyle=1;strokeWidth=2;sketch=1;curveFitting=1;jiggle=2;fontFamily=Comic Sans MS;fillColor=#dae8fc;strokeColor=#6c8ebf;" parent="1" vertex="1">
          <mxGeometry x="480" y="60" width="120" height="80" as="geometry" />
        </mxCell>
        <mxCell id="RLzSlAPk3jwJpsq7z313-7" value="Get Agent" style="ellipse;whiteSpace=wrap;html=1;fontStyle=1;strokeWidth=2;sketch=1;curveFitting=1;jiggle=2;fontFamily=Comic Sans MS;fillColor=none;strokeColor=#6c8ebf;" parent="1" vertex="1">
          <mxGeometry x="480" y="260" width="120" height="80" as="geometry" />
        </mxCell>
        <mxCell id="RLzSlAPk3jwJpsq7z313-22" style="edgeStyle=none;rounded=0;orthogonalLoop=1;jettySize=auto;html=1;strokeColor=default;align=center;verticalAlign=middle;fontFamily=Comic Sans MS;fontSize=11;fontColor=default;labelBackgroundColor=default;endArrow=open;endFill=0;dashed=1;sketch=1;curveFitting=1;jiggle=2;" parent="1" source="RLzSlAPk3jwJpsq7z313-8" target="RLzSlAPk3jwJpsq7z313-6" edge="1">
          <mxGeometry relative="1" as="geometry" />
        </mxCell>
        <mxCell id="RLzSlAPk3jwJpsq7z313-23" value="&lt;font style=&quot;font-size: 10px;&quot;&gt;«include»&lt;/font&gt;" style="edgeLabel;html=1;align=center;verticalAlign=middle;resizable=0;points=[];fontFamily=Comic Sans MS;fontSize=11;fontColor=default;labelBackgroundColor=default;" parent="RLzSlAPk3jwJpsq7z313-22" vertex="1" connectable="0">
          <mxGeometry x="0.14" relative="1" as="geometry">
            <mxPoint x="-7" y="2" as="offset" />
          </mxGeometry>
        </mxCell>
        <mxCell id="RLzSlAPk3jwJpsq7z313-8" value="Get View" style="ellipse;whiteSpace=wrap;html=1;fontStyle=1;strokeWidth=2;sketch=1;curveFitting=1;jiggle=2;fontFamily=Comic Sans MS;fillColor=none;strokeColor=#6c8ebf;" parent="1" vertex="1">
          <mxGeometry x="315" y="160" width="120" height="80" as="geometry" />
        </mxCell>
        <mxCell id="RLzSlAPk3jwJpsq7z313-15" style="rounded=0;orthogonalLoop=1;jettySize=auto;html=1;endArrow=none;endFill=0;strokeWidth=2;sketch=1;curveFitting=1;jiggle=2;fontFamily=Comic Sans MS;" parent="1" source="RLzSlAPk3jwJpsq7z313-10" target="RLzSlAPk3jwJpsq7z313-11" edge="1">
          <mxGeometry relative="1" as="geometry" />
        </mxCell>
        <mxCell id="RLzSlAPk3jwJpsq7z313-10" value="System Node" style="shape=umlActor;verticalLabelPosition=bottom;verticalAlign=top;html=1;outlineConnect=0;fontStyle=3;sketch=1;curveFitting=1;jiggle=2;fontFamily=Comic Sans MS;fillColor=#e1d5e7;strokeColor=#9673a6;" parent="1" vertex="1">
          <mxGeometry x="815" y="170" width="30" height="60" as="geometry" />
        </mxCell>
        <mxCell id="RLzSlAPk3jwJpsq7z313-11" value="Send Data" style="ellipse;whiteSpace=wrap;html=1;fontStyle=1;strokeWidth=2;sketch=1;curveFitting=1;jiggle=2;fontFamily=Comic Sans MS;fillColor=none;strokeColor=#9673a6;" parent="1" vertex="1">
          <mxGeometry x="770" y="60" width="120" height="80" as="geometry" />
        </mxCell>
        <mxCell id="RLzSlAPk3jwJpsq7z313-12" value="Make Network&lt;div&gt;Priority List&lt;/div&gt;" style="ellipse;whiteSpace=wrap;html=1;fontStyle=1;strokeWidth=2;sketch=1;curveFitting=1;jiggle=2;fontFamily=Comic Sans MS;fillColor=none;strokeColor=#82b366;" parent="1" vertex="1">
          <mxGeometry x="180" y="260" width="120" height="80" as="geometry" />
        </mxCell>
        <mxCell id="RLzSlAPk3jwJpsq7z313-13" value="Send Alive" style="ellipse;whiteSpace=wrap;html=1;fontStyle=1;strokeWidth=2;sketch=1;curveFitting=1;jiggle=2;fontFamily=Comic Sans MS;fillColor=none;strokeColor=#b85450;" parent="1" vertex="1">
          <mxGeometry x="20" y="250" width="120" height="80" as="geometry" />
        </mxCell>
        <mxCell id="RLzSlAPk3jwJpsq7z313-21" style="edgeStyle=none;rounded=0;orthogonalLoop=1;jettySize=auto;html=1;strokeColor=default;align=center;verticalAlign=middle;fontFamily=Comic Sans MS;fontSize=11;fontColor=default;labelBackgroundColor=default;endArrow=none;endFill=0;strokeWidth=2;sketch=1;curveFitting=1;jiggle=2;" parent="1" source="RLzSlAPk3jwJpsq7z313-20" target="RLzSlAPk3jwJpsq7z313-13" edge="1">
          <mxGeometry relative="1" as="geometry" />
        </mxCell>
        <mxCell id="RLzSlAPk3jwJpsq7z313-20" value="System Node" style="shape=umlActor;verticalLabelPosition=bottom;verticalAlign=top;html=1;outlineConnect=0;fontStyle=3;sketch=1;curveFitting=1;jiggle=2;fontFamily=Comic Sans MS;fillColor=#f8cecc;strokeColor=#b85450;" parent="1" vertex="1">
          <mxGeometry x="65" y="354" width="30" height="60" as="geometry" />
        </mxCell>
        <mxCell id="RLzSlAPk3jwJpsq7z313-24" style="edgeStyle=none;rounded=0;orthogonalLoop=1;jettySize=auto;html=1;strokeColor=default;align=center;verticalAlign=middle;fontFamily=Comic Sans MS;fontSize=11;fontColor=default;labelBackgroundColor=default;endArrow=open;endFill=0;dashed=1;sketch=1;curveFitting=1;jiggle=2;" parent="1" source="RLzSlAPk3jwJpsq7z313-7" target="RLzSlAPk3jwJpsq7z313-6" edge="1">
          <mxGeometry relative="1" as="geometry">
            <mxPoint x="510" y="270" as="sourcePoint" />
            <mxPoint x="510" y="230" as="targetPoint" />
          </mxGeometry>
        </mxCell>
        <mxCell id="RLzSlAPk3jwJpsq7z313-25" value="&lt;font style=&quot;font-size: 10px;&quot;&gt;«include»&lt;/font&gt;" style="edgeLabel;html=1;align=center;verticalAlign=middle;resizable=0;points=[];fontFamily=Comic Sans MS;fontSize=11;fontColor=default;labelBackgroundColor=default;" parent="RLzSlAPk3jwJpsq7z313-24" vertex="1" connectable="0">
          <mxGeometry x="0.14" relative="1" as="geometry">
            <mxPoint y="3" as="offset" />
          </mxGeometry>
        </mxCell>
        <mxCell id="RLzSlAPk3jwJpsq7z313-26" style="edgeStyle=none;rounded=0;orthogonalLoop=1;jettySize=auto;html=1;strokeColor=default;align=center;verticalAlign=middle;fontFamily=Comic Sans MS;fontSize=11;fontColor=default;labelBackgroundColor=default;endArrow=open;endFill=0;dashed=1;sketch=1;curveFitting=1;jiggle=2;" parent="1" source="RLzSlAPk3jwJpsq7z313-6" target="RLzSlAPk3jwJpsq7z313-11" edge="1">
          <mxGeometry relative="1" as="geometry">
            <mxPoint x="523" y="270" as="sourcePoint" />
            <mxPoint x="517" y="230" as="targetPoint" />
          </mxGeometry>
        </mxCell>
        <mxCell id="RLzSlAPk3jwJpsq7z313-28" style="edgeStyle=none;rounded=0;orthogonalLoop=1;jettySize=auto;html=1;strokeColor=default;align=center;verticalAlign=middle;fontFamily=Comic Sans MS;fontSize=11;fontColor=default;labelBackgroundColor=default;endArrow=open;endFill=0;dashed=1;sketch=1;curveFitting=1;jiggle=2;" parent="1" source="RLzSlAPk3jwJpsq7z313-5" target="RLzSlAPk3jwJpsq7z313-12" edge="1">
          <mxGeometry relative="1" as="geometry">
            <mxPoint x="544" y="109" as="sourcePoint" />
            <mxPoint x="526" y="151" as="targetPoint" />
          </mxGeometry>
        </mxCell>
        <mxCell id="RLzSlAPk3jwJpsq7z313-29" value="&lt;font style=&quot;font-size: 10px;&quot;&gt;«include»&lt;/font&gt;" style="edgeLabel;html=1;align=center;verticalAlign=middle;resizable=0;points=[];fontFamily=Comic Sans MS;fontSize=11;fontColor=default;labelBackgroundColor=default;" parent="RLzSlAPk3jwJpsq7z313-28" vertex="1" connectable="0">
          <mxGeometry x="0.14" relative="1" as="geometry">
            <mxPoint y="-9" as="offset" />
          </mxGeometry>
        </mxCell>
        <mxCell id="RLzSlAPk3jwJpsq7z313-31" style="edgeStyle=none;rounded=0;orthogonalLoop=1;jettySize=auto;html=1;strokeColor=default;align=center;verticalAlign=middle;fontFamily=Comic Sans MS;fontSize=11;fontColor=default;labelBackgroundColor=default;endArrow=open;endFill=0;dashed=1;sketch=1;curveFitting=1;jiggle=2;" parent="1" source="RLzSlAPk3jwJpsq7z313-12" target="RLzSlAPk3jwJpsq7z313-13" edge="1">
          <mxGeometry relative="1" as="geometry">
            <mxPoint x="290" y="150" as="sourcePoint" />
            <mxPoint x="290" y="110" as="targetPoint" />
          </mxGeometry>
        </mxCell>
        <mxCell id="RLzSlAPk3jwJpsq7z313-36" style="edgeStyle=none;rounded=0;orthogonalLoop=1;jettySize=auto;html=1;strokeColor=default;align=center;verticalAlign=middle;fontFamily=Comic Sans MS;fontSize=11;fontColor=default;labelBackgroundColor=default;endArrow=open;endFill=0;dashed=1;sketch=1;curveFitting=1;jiggle=2;" parent="1" source="RLzSlAPk3jwJpsq7z313-5" target="RLzSlAPk3jwJpsq7z313-6" edge="1">
          <mxGeometry relative="1" as="geometry">
            <mxPoint x="290" y="230" as="sourcePoint" />
            <mxPoint x="290" y="270" as="targetPoint" />
          </mxGeometry>
        </mxCell>
        <mxCell id="RLzSlAPk3jwJpsq7z313-37" value="&lt;font style=&quot;font-size: 10px;&quot;&gt;«extend»&lt;/font&gt;" style="edgeLabel;html=1;align=center;verticalAlign=middle;resizable=0;points=[];fontFamily=Comic Sans MS;fontSize=11;fontColor=default;labelBackgroundColor=default;" parent="RLzSlAPk3jwJpsq7z313-36" vertex="1" connectable="0">
          <mxGeometry x="0.14" relative="1" as="geometry">
            <mxPoint x="-26" as="offset" />
          </mxGeometry>
        </mxCell>
        <mxCell id="1Bwzyp4aEWJ9fdEkrXxo-1" value="Get Network" style="ellipse;whiteSpace=wrap;html=1;fontStyle=1;strokeWidth=2;sketch=1;curveFitting=1;jiggle=2;fontFamily=Comic Sans MS;fillColor=none;strokeColor=#6c8ebf;" vertex="1" parent="1">
          <mxGeometry x="620" y="344" width="120" height="80" as="geometry" />
        </mxCell>
        <mxCell id="1Bwzyp4aEWJ9fdEkrXxo-2" style="edgeStyle=none;rounded=0;orthogonalLoop=1;jettySize=auto;html=1;strokeColor=default;align=center;verticalAlign=middle;fontFamily=Comic Sans MS;fontSize=11;fontColor=default;labelBackgroundColor=default;endArrow=none;endFill=0;strokeWidth=2;sketch=1;curveFitting=1;jiggle=2;exitX=0.5;exitY=0.5;exitDx=0;exitDy=0;exitPerimeter=0;" edge="1" parent="1" source="RLzSlAPk3jwJpsq7z313-4" target="1Bwzyp4aEWJ9fdEkrXxo-1">
          <mxGeometry relative="1" as="geometry">
            <mxPoint x="400" y="410" as="sourcePoint" />
            <mxPoint x="531" y="148" as="targetPoint" />
          </mxGeometry>
        </mxCell>
        <mxCell id="1Bwzyp4aEWJ9fdEkrXxo-4" style="edgeStyle=none;rounded=0;orthogonalLoop=1;jettySize=auto;html=1;strokeColor=default;align=center;verticalAlign=middle;fontFamily=Comic Sans MS;fontSize=11;fontColor=default;labelBackgroundColor=default;endArrow=open;endFill=0;dashed=1;sketch=1;curveFitting=1;jiggle=2;" edge="1" parent="1" source="1Bwzyp4aEWJ9fdEkrXxo-1" target="RLzSlAPk3jwJpsq7z313-6">
          <mxGeometry relative="1" as="geometry">
            <mxPoint x="600" y="310" as="sourcePoint" />
            <mxPoint x="600" y="190" as="targetPoint" />
          </mxGeometry>
        </mxCell>
        <mxCell id="1Bwzyp4aEWJ9fdEkrXxo-5" value="&lt;font style=&quot;font-size: 10px;&quot;&gt;«include»&lt;/font&gt;" style="edgeLabel;html=1;align=center;verticalAlign=middle;resizable=0;points=[];fontFamily=Comic Sans MS;fontSize=11;fontColor=default;labelBackgroundColor=default;" vertex="1" connectable="0" parent="1Bwzyp4aEWJ9fdEkrXxo-4">
          <mxGeometry x="0.14" relative="1" as="geometry">
            <mxPoint y="3" as="offset" />
          </mxGeometry>
        </mxCell>
      </root>
    </mxGraphModel>
  </diagram>
  <diagram id="AHo6W9pjt4F2KuvftfWf" name="act-get-data">
    <mxGraphModel dx="1372" dy="706" grid="1" gridSize="10" guides="1" tooltips="1" connect="1" arrows="1" fold="1" page="1" pageScale="1" pageWidth="1169" pageHeight="827" math="0" shadow="0">
      <root>
        <mxCell id="0" />
        <mxCell id="1" parent="0" />
        <mxCell id="NrjqUld5UbdIwUtE3f8h-9" value="&lt;p style=&quot;margin:0px;margin-top:4px;margin-left:5px;text-align:left;&quot;&gt;&lt;b&gt;act&lt;/b&gt;&amp;nbsp;Get Data&lt;span style=&quot;background-color: initial;&quot;&gt;&amp;nbsp;&lt;/span&gt;&lt;span style=&quot;background-color: initial;&quot;&gt;v0.0.1&lt;/span&gt;&lt;/p&gt;" style="html=1;shape=mxgraph.sysml.package;overflow=fill;labelX=128;align=left;spacingLeft=5;verticalAlign=top;spacingTop=-3;labelBackgroundColor=none;fontFamily=Helvetica;shadow=0;sketch=1;curveFitting=1;jiggle=2;" vertex="1" parent="1">
          <mxGeometry width="1190" height="740" as="geometry" />
        </mxCell>
        <mxCell id="YhQUO0_M6qB6URxOsc1M-52" value="Remote Relay Node" style="shape=partialRectangle;whiteSpace=wrap;html=1;bottom=0;top=0;fontFamily=Helvetica;fontSize=12;labelBackgroundColor=none;verticalAlign=top;fontStyle=3;fillColor=none;shadow=0;sketch=1;curveFitting=1;jiggle=2;" vertex="1" parent="1">
          <mxGeometry x="970" y="20" width="220" height="720" as="geometry" />
        </mxCell>
        <mxCell id="NrjqUld5UbdIwUtE3f8h-10" value="Local Relay Node" style="shape=partialRectangle;whiteSpace=wrap;html=1;bottom=0;top=0;fontFamily=Helvetica;fontSize=12;labelBackgroundColor=none;verticalAlign=top;fontStyle=3;fillColor=none;shadow=0;sketch=1;curveFitting=1;jiggle=2;" vertex="1" parent="1">
          <mxGeometry x="250" y="20" width="720" height="720" as="geometry" />
        </mxCell>
        <mxCell id="NrjqUld5UbdIwUtE3f8h-11" value="Relay User&lt;div&gt;&lt;span style=&quot;font-size: 10px; font-weight: 400;&quot;&gt;(all interfaces)&lt;/span&gt;&lt;br&gt;&lt;/div&gt;" style="shape=partialRectangle;whiteSpace=wrap;html=1;bottom=0;top=0;fontFamily=Helvetica;fontSize=12;labelBackgroundColor=none;verticalAlign=top;fontStyle=3;fillColor=none;shadow=0;sketch=1;curveFitting=1;jiggle=2;" vertex="1" parent="1">
          <mxGeometry y="20" width="250" height="720" as="geometry" />
        </mxCell>
        <mxCell id="NrjqUld5UbdIwUtE3f8h-14" value="" style="html=1;shape=mxgraph.sysml.actFinal;strokeWidth=2;verticalLabelPosition=middle;verticalAlignment=top;fontFamily=Helvetica;fontSize=11;labelBackgroundColor=none;labelPosition=right;align=left;verticalAlign=middle;shadow=0;sketch=1;curveFitting=1;jiggle=2;" vertex="1" parent="1">
          <mxGeometry x="320" y="680" width="40" height="40" as="geometry" />
        </mxCell>
        <mxCell id="JVHVPObcVi5ZBT4Kbtqd-2" style="edgeStyle=none;rounded=0;orthogonalLoop=1;jettySize=auto;html=1;strokeColor=default;strokeWidth=2;align=center;verticalAlign=middle;fontFamily=Helvetica;fontSize=10;fontColor=default;fontStyle=3;labelBackgroundColor=none;endArrow=open;endFill=0;sketch=1;curveFitting=1;jiggle=2;" edge="1" parent="1" source="JVHVPObcVi5ZBT4Kbtqd-3" target="JVHVPObcVi5ZBT4Kbtqd-15">
          <mxGeometry relative="1" as="geometry">
            <mxPoint x="101.25" y="180" as="targetPoint" />
          </mxGeometry>
        </mxCell>
        <mxCell id="JVHVPObcVi5ZBT4Kbtqd-3" value="" style="shape=ellipse;html=1;strokeWidth=2;verticalLabelPosition=bottom;verticalAlignment=top;perimeter=ellipsePerimeter;fontFamily=Helvetica;fontSize=11;labelBackgroundColor=none;sketch=1;curveFitting=1;jiggle=2;" vertex="1" parent="1">
          <mxGeometry x="21.25" y="190" width="40" height="40" as="geometry" />
        </mxCell>
        <mxCell id="JVHVPObcVi5ZBT4Kbtqd-4" style="edgeStyle=orthogonalEdgeStyle;rounded=0;orthogonalLoop=1;jettySize=auto;html=1;strokeColor=default;strokeWidth=1;align=center;verticalAlign=middle;fontFamily=Helvetica;fontSize=10;fontColor=default;fontStyle=3;labelBackgroundColor=none;endArrow=open;endFill=0;sketch=1;curveFitting=1;jiggle=2;" edge="1" parent="1" source="JVHVPObcVi5ZBT4Kbtqd-5" target="JVHVPObcVi5ZBT4Kbtqd-9">
          <mxGeometry relative="1" as="geometry">
            <Array as="points">
              <mxPoint x="260" y="210" />
              <mxPoint x="260" y="270" />
            </Array>
          </mxGeometry>
        </mxCell>
        <mxCell id="JVHVPObcVi5ZBT4Kbtqd-5" value="&lt;div&gt;&lt;font style=&quot;font-size: 12px;&quot;&gt;repository&lt;/font&gt;&lt;/div&gt;" style="rounded=0;whiteSpace=wrap;html=1;fontFamily=Helvetica;fontSize=10;fontColor=default;labelBackgroundColor=none;strokeWidth=1;fontStyle=3;shadow=1;sketch=1;curveFitting=1;jiggle=2;" vertex="1" parent="1">
          <mxGeometry x="108.75" y="180" width="120" height="60" as="geometry" />
        </mxCell>
        <mxCell id="JVHVPObcVi5ZBT4Kbtqd-6" style="edgeStyle=none;rounded=0;orthogonalLoop=1;jettySize=auto;html=1;strokeColor=default;align=center;verticalAlign=middle;fontFamily=Helvetica;fontSize=11;fontColor=default;labelBackgroundColor=default;endArrow=open;endFill=0;strokeWidth=2;sketch=1;curveFitting=1;jiggle=2;" edge="1" parent="1" source="JVHVPObcVi5ZBT4Kbtqd-9" target="JVHVPObcVi5ZBT4Kbtqd-8">
          <mxGeometry relative="1" as="geometry">
            <mxPoint x="382.5" y="251.5" as="sourcePoint" />
          </mxGeometry>
        </mxCell>
        <mxCell id="JVHVPObcVi5ZBT4Kbtqd-7" value="[data not exist]" style="edgeLabel;html=1;align=center;verticalAlign=middle;resizable=0;points=[];fontFamily=Helvetica;fontSize=10;fontColor=default;labelBackgroundColor=default;" vertex="1" connectable="0" parent="JVHVPObcVi5ZBT4Kbtqd-6">
          <mxGeometry x="0.0328" relative="1" as="geometry">
            <mxPoint x="-4" as="offset" />
          </mxGeometry>
        </mxCell>
        <mxCell id="JVHVPObcVi5ZBT4Kbtqd-25" style="edgeStyle=orthogonalEdgeStyle;rounded=0;orthogonalLoop=1;jettySize=auto;html=1;strokeColor=default;align=center;verticalAlign=middle;fontFamily=Helvetica;fontSize=11;fontColor=default;labelBackgroundColor=default;endArrow=open;endFill=0;strokeWidth=2;sketch=1;curveFitting=1;jiggle=2;" edge="1" parent="1" source="JVHVPObcVi5ZBT4Kbtqd-8" target="JVHVPObcVi5ZBT4Kbtqd-24">
          <mxGeometry relative="1" as="geometry" />
        </mxCell>
        <mxCell id="JVHVPObcVi5ZBT4Kbtqd-8" value="[Not Found Error]" style="html=1;shape=mxgraph.sysml.flowFinal;strokeWidth=2;verticalLabelPosition=bottom;verticalAlignment=top;fontFamily=Helvetica;fontSize=10;labelBackgroundColor=none;fillColor=#f8cecc;strokeColor=#b85450;labelBorderColor=none;shadow=0;sketch=1;curveFitting=1;jiggle=2;" vertex="1" parent="1">
          <mxGeometry x="540" y="250" width="40" height="40" as="geometry" />
        </mxCell>
        <mxCell id="JVHVPObcVi5ZBT4Kbtqd-22" style="edgeStyle=orthogonalEdgeStyle;rounded=0;orthogonalLoop=1;jettySize=auto;html=1;entryX=1;entryY=0.5;entryDx=0;entryDy=0;strokeColor=default;align=center;verticalAlign=middle;fontFamily=Helvetica;fontSize=11;fontColor=default;labelBackgroundColor=default;endArrow=open;endFill=0;exitX=0.25;exitY=1;exitDx=0;exitDy=0;sketch=1;curveFitting=1;jiggle=2;strokeWidth=2;" edge="1" parent="1" source="JVHVPObcVi5ZBT4Kbtqd-9" target="JVHVPObcVi5ZBT4Kbtqd-10">
          <mxGeometry relative="1" as="geometry" />
        </mxCell>
        <mxCell id="JVHVPObcVi5ZBT4Kbtqd-23" style="edgeStyle=orthogonalEdgeStyle;rounded=0;orthogonalLoop=1;jettySize=auto;html=1;strokeColor=default;align=center;verticalAlign=middle;fontFamily=Helvetica;fontSize=11;fontColor=default;labelBackgroundColor=default;endArrow=open;endFill=0;sketch=1;curveFitting=1;jiggle=2;exitX=0.25;exitY=1;exitDx=0;exitDy=0;" edge="1" parent="1" source="JVHVPObcVi5ZBT4Kbtqd-9" target="NrjqUld5UbdIwUtE3f8h-14">
          <mxGeometry relative="1" as="geometry" />
        </mxCell>
        <mxCell id="YhQUO0_M6qB6URxOsc1M-19" value="&lt;span style=&quot;font-size: 11px;&quot;&gt;[data exist]&lt;/span&gt;" style="edgeLabel;html=1;align=center;verticalAlign=middle;resizable=0;points=[];fontFamily=Helvetica;fontSize=10;fontColor=default;labelBackgroundColor=default;fillColor=none;gradientColor=none;" vertex="1" connectable="0" parent="JVHVPObcVi5ZBT4Kbtqd-23">
          <mxGeometry x="-0.2704" y="-1" relative="1" as="geometry">
            <mxPoint x="1" y="-91" as="offset" />
          </mxGeometry>
        </mxCell>
        <mxCell id="JVHVPObcVi5ZBT4Kbtqd-9" value="Read Data" style="rounded=1;whiteSpace=wrap;html=1;fontFamily=Helvetica;fontSize=10;fontColor=default;labelBackgroundColor=none;strokeWidth=4;fontStyle=3;labelBorderColor=none;sketch=1;curveFitting=1;jiggle=2;" vertex="1" parent="1">
          <mxGeometry x="310" y="240" width="120" height="60" as="geometry" />
        </mxCell>
        <mxCell id="JVHVPObcVi5ZBT4Kbtqd-10" value="&lt;div&gt;&lt;span style=&quot;font-weight: normal; font-style: normal;&quot;&gt;«binary»&lt;/span&gt;&lt;/div&gt;&lt;font style=&quot;font-size: 12px;&quot;&gt;Data Content&lt;/font&gt;" style="rounded=0;whiteSpace=wrap;html=1;fontFamily=Helvetica;fontSize=10;fontColor=default;labelBackgroundColor=none;strokeWidth=1;fontStyle=3;shadow=1;sketch=1;curveFitting=1;jiggle=2;" vertex="1" parent="1">
          <mxGeometry x="65" y="620" width="120" height="60" as="geometry" />
        </mxCell>
        <mxCell id="JVHVPObcVi5ZBT4Kbtqd-11" value="&lt;div&gt;&lt;span style=&quot;font-style: normal; font-weight: normal; background-color: initial;&quot;&gt;«identification»&lt;/span&gt;&lt;br&gt;&lt;/div&gt;&lt;div&gt;&lt;font style=&quot;font-size: 12px;&quot;&gt;Data Identification&lt;/font&gt;&lt;span style=&quot;font-size: 12px; background-color: initial;&quot;&gt;&lt;br&gt;&lt;/span&gt;&lt;/div&gt;" style="rounded=0;whiteSpace=wrap;html=1;fontFamily=Helvetica;fontSize=10;fontColor=default;labelBackgroundColor=none;strokeWidth=1;fontStyle=3;shadow=1;sketch=1;curveFitting=1;jiggle=2;" vertex="1" parent="1">
          <mxGeometry x="108.75" y="105" width="120" height="60" as="geometry" />
        </mxCell>
        <mxCell id="JVHVPObcVi5ZBT4Kbtqd-12" style="edgeStyle=elbowEdgeStyle;rounded=0;orthogonalLoop=1;jettySize=auto;html=1;strokeColor=default;strokeWidth=1;align=center;verticalAlign=middle;fontFamily=Helvetica;fontSize=10;fontColor=default;fontStyle=3;labelBackgroundColor=none;endArrow=open;endFill=0;elbow=vertical;sketch=1;curveFitting=1;jiggle=2;" edge="1" parent="1" source="JVHVPObcVi5ZBT4Kbtqd-15" target="JVHVPObcVi5ZBT4Kbtqd-11">
          <mxGeometry relative="1" as="geometry" />
        </mxCell>
        <mxCell id="JVHVPObcVi5ZBT4Kbtqd-13" style="edgeStyle=elbowEdgeStyle;rounded=0;orthogonalLoop=1;jettySize=auto;html=1;strokeColor=default;strokeWidth=2;align=center;verticalAlign=middle;fontFamily=Helvetica;fontSize=10;fontColor=default;fontStyle=3;labelBackgroundColor=none;endArrow=open;endFill=0;elbow=vertical;sketch=1;curveFitting=1;jiggle=2;" edge="1" parent="1" source="JVHVPObcVi5ZBT4Kbtqd-15" target="JVHVPObcVi5ZBT4Kbtqd-5">
          <mxGeometry relative="1" as="geometry" />
        </mxCell>
        <mxCell id="JVHVPObcVi5ZBT4Kbtqd-14" style="edgeStyle=elbowEdgeStyle;rounded=0;orthogonalLoop=1;jettySize=auto;html=1;strokeColor=default;align=center;verticalAlign=middle;fontFamily=Helvetica;fontSize=11;fontColor=default;labelBackgroundColor=default;endArrow=open;endFill=0;elbow=vertical;sketch=1;curveFitting=1;jiggle=2;" edge="1" parent="1" source="JVHVPObcVi5ZBT4Kbtqd-15" target="JVHVPObcVi5ZBT4Kbtqd-17">
          <mxGeometry relative="1" as="geometry" />
        </mxCell>
        <mxCell id="JVHVPObcVi5ZBT4Kbtqd-15" value="" style="rounded=0;whiteSpace=wrap;html=1;fontFamily=Helvetica;fontSize=10;fontColor=default;labelBackgroundColor=none;strokeWidth=2;fontStyle=3;sketch=1;curveFitting=1;jiggle=2;" vertex="1" parent="1">
          <mxGeometry x="81.25" y="107.5" width="2" height="205" as="geometry" />
        </mxCell>
        <mxCell id="JVHVPObcVi5ZBT4Kbtqd-16" style="rounded=0;orthogonalLoop=1;jettySize=auto;html=1;strokeColor=default;align=center;verticalAlign=middle;fontFamily=Helvetica;fontSize=11;fontColor=default;labelBackgroundColor=default;endArrow=open;endFill=0;edgeStyle=orthogonalEdgeStyle;entryX=0;entryY=0.75;entryDx=0;entryDy=0;sketch=1;curveFitting=1;jiggle=2;" edge="1" parent="1" source="JVHVPObcVi5ZBT4Kbtqd-17" target="JVHVPObcVi5ZBT4Kbtqd-9">
          <mxGeometry relative="1" as="geometry" />
        </mxCell>
        <mxCell id="JVHVPObcVi5ZBT4Kbtqd-17" value="&lt;div&gt;&lt;span style=&quot;font-weight: normal; font-style: normal;&quot;&gt;«Base58, RSA 2048&lt;/span&gt;&lt;span style=&quot;font-style: normal; font-weight: normal;&quot;&gt;»&lt;/span&gt;&lt;/div&gt;&lt;div&gt;&lt;span style=&quot;font-size: 12px;&quot;&gt;Agent&amp;nbsp;&lt;/span&gt;&lt;span style=&quot;font-size: 12px; background-color: initial;&quot;&gt;Private&lt;/span&gt;&lt;span style=&quot;font-size: 12px; background-color: initial;&quot;&gt;&amp;nbsp;Key&lt;/span&gt;&lt;/div&gt;" style="rounded=0;whiteSpace=wrap;html=1;fontFamily=Helvetica;fontSize=10;fontColor=default;labelBackgroundColor=none;strokeWidth=1;fontStyle=3;rotation=0;horizontal=1;sketch=1;curveFitting=1;jiggle=2;shadow=1;" vertex="1" parent="1">
          <mxGeometry x="108.75" y="255" width="120" height="60" as="geometry" />
        </mxCell>
        <mxCell id="JVHVPObcVi5ZBT4Kbtqd-20" style="rounded=0;orthogonalLoop=1;jettySize=auto;html=1;strokeColor=default;align=center;verticalAlign=middle;fontFamily=Helvetica;fontSize=11;fontColor=default;labelBackgroundColor=default;endArrow=open;endFill=0;edgeStyle=orthogonalEdgeStyle;entryX=0;entryY=0.25;entryDx=0;entryDy=0;strokeWidth=2;sketch=1;curveFitting=1;jiggle=2;" edge="1" parent="1" source="JVHVPObcVi5ZBT4Kbtqd-11" target="JVHVPObcVi5ZBT4Kbtqd-9">
          <mxGeometry relative="1" as="geometry">
            <mxPoint x="238" y="267" as="sourcePoint" />
            <mxPoint x="280" y="248" as="targetPoint" />
            <Array as="points">
              <mxPoint x="280" y="135" />
              <mxPoint x="280" y="255" />
            </Array>
          </mxGeometry>
        </mxCell>
        <mxCell id="YhQUO0_M6qB6URxOsc1M-2" style="edgeStyle=orthogonalEdgeStyle;rounded=0;orthogonalLoop=1;jettySize=auto;html=1;strokeColor=default;align=center;verticalAlign=middle;fontFamily=Helvetica;fontSize=11;fontColor=default;labelBackgroundColor=default;endArrow=open;endFill=0;dashed=1;sketch=1;curveFitting=1;jiggle=2;" edge="1" parent="1" source="JVHVPObcVi5ZBT4Kbtqd-24" target="YhQUO0_M6qB6URxOsc1M-1">
          <mxGeometry relative="1" as="geometry" />
        </mxCell>
        <mxCell id="YhQUO0_M6qB6URxOsc1M-4" style="edgeStyle=orthogonalEdgeStyle;rounded=0;orthogonalLoop=1;jettySize=auto;html=1;strokeColor=default;align=center;verticalAlign=middle;fontFamily=Helvetica;fontSize=11;fontColor=default;labelBackgroundColor=default;endArrow=open;endFill=0;strokeWidth=2;sketch=1;curveFitting=1;jiggle=2;" edge="1" parent="1" source="JVHVPObcVi5ZBT4Kbtqd-24" target="YhQUO0_M6qB6URxOsc1M-5">
          <mxGeometry relative="1" as="geometry">
            <mxPoint x="770" y="270" as="targetPoint" />
          </mxGeometry>
        </mxCell>
        <mxCell id="JVHVPObcVi5ZBT4Kbtqd-24" value="Get first node from list" style="rounded=1;whiteSpace=wrap;html=1;fontFamily=Helvetica;fontSize=10;fontColor=default;labelBackgroundColor=none;strokeWidth=2;fontStyle=3;labelBorderColor=none;sketch=1;curveFitting=1;jiggle=2;" vertex="1" parent="1">
          <mxGeometry x="610" y="240" width="120" height="60" as="geometry" />
        </mxCell>
        <mxCell id="YhQUO0_M6qB6URxOsc1M-1" value="&lt;span style=&quot;font-size: 12px; font-style: normal;&quot;&gt;Network&lt;/span&gt;&lt;div style=&quot;font-size: 12px; font-style: normal;&quot;&gt;Priority List&lt;/div&gt;" style="rounded=0;whiteSpace=wrap;html=1;fontFamily=Helvetica;fontSize=10;fontColor=default;labelBackgroundColor=none;strokeWidth=1;fontStyle=3;shadow=0;sketch=1;curveFitting=1;jiggle=2;" vertex="1" parent="1">
          <mxGeometry x="610" y="340" width="120" height="60" as="geometry" />
        </mxCell>
        <mxCell id="YhQUO0_M6qB6URxOsc1M-20" style="edgeStyle=orthogonalEdgeStyle;rounded=0;orthogonalLoop=1;jettySize=auto;html=1;strokeColor=default;align=center;verticalAlign=middle;fontFamily=Helvetica;fontSize=10;fontColor=default;labelBackgroundColor=default;endArrow=open;endFill=0;strokeWidth=2;sketch=1;curveFitting=1;jiggle=2;" edge="1" parent="1" source="YhQUO0_M6qB6URxOsc1M-5" target="YhQUO0_M6qB6URxOsc1M-13">
          <mxGeometry relative="1" as="geometry" />
        </mxCell>
        <mxCell id="YhQUO0_M6qB6URxOsc1M-5" value="Request data over TCP/IP network" style="rounded=1;whiteSpace=wrap;html=1;fontFamily=Helvetica;fontSize=10;fontColor=default;labelBackgroundColor=none;strokeWidth=2;fontStyle=3;labelBorderColor=none;sketch=1;curveFitting=1;jiggle=2;" vertex="1" parent="1">
          <mxGeometry x="750" y="240" width="120" height="60" as="geometry" />
        </mxCell>
        <mxCell id="YhQUO0_M6qB6URxOsc1M-16" style="edgeStyle=orthogonalEdgeStyle;rounded=0;orthogonalLoop=1;jettySize=auto;html=1;strokeColor=default;align=center;verticalAlign=middle;fontFamily=Helvetica;fontSize=11;fontColor=default;labelBackgroundColor=default;endArrow=open;endFill=0;strokeWidth=2;sketch=1;curveFitting=1;jiggle=2;" edge="1" parent="1" source="YhQUO0_M6qB6URxOsc1M-12" target="YhQUO0_M6qB6URxOsc1M-15">
          <mxGeometry relative="1" as="geometry" />
        </mxCell>
        <mxCell id="YhQUO0_M6qB6URxOsc1M-18" value="&lt;font style=&quot;font-size: 10px;&quot;&gt;[data exist]&lt;/font&gt;" style="edgeLabel;html=1;align=center;verticalAlign=middle;resizable=0;points=[];fontFamily=Helvetica;fontSize=10;fontColor=default;labelBackgroundColor=default;" vertex="1" connectable="0" parent="YhQUO0_M6qB6URxOsc1M-16">
          <mxGeometry x="-0.32" y="1" relative="1" as="geometry">
            <mxPoint y="1" as="offset" />
          </mxGeometry>
        </mxCell>
        <mxCell id="YhQUO0_M6qB6URxOsc1M-12" value="" style="rhombus;whiteSpace=wrap;html=1;fontFamily=Helvetica;fontSize=11;fontColor=default;labelBackgroundColor=default;strokeWidth=2;sketch=1;curveFitting=1;jiggle=2;" vertex="1" parent="1">
          <mxGeometry x="1030" y="320" width="60" height="60" as="geometry" />
        </mxCell>
        <mxCell id="YhQUO0_M6qB6URxOsc1M-14" style="edgeStyle=orthogonalEdgeStyle;rounded=0;orthogonalLoop=1;jettySize=auto;html=1;strokeColor=default;align=center;verticalAlign=middle;fontFamily=Helvetica;fontSize=11;fontColor=default;labelBackgroundColor=default;endArrow=open;endFill=0;strokeWidth=2;sketch=1;curveFitting=1;jiggle=2;" edge="1" parent="1" source="YhQUO0_M6qB6URxOsc1M-13" target="YhQUO0_M6qB6URxOsc1M-12">
          <mxGeometry relative="1" as="geometry" />
        </mxCell>
        <mxCell id="YhQUO0_M6qB6URxOsc1M-13" value="Send Data" style="rounded=1;whiteSpace=wrap;html=1;fontFamily=Helvetica;fontSize=10;fontColor=default;labelBackgroundColor=none;strokeWidth=4;fontStyle=3;labelBorderColor=none;sketch=1;curveFitting=1;jiggle=2;" vertex="1" parent="1">
          <mxGeometry x="1000" y="240" width="120" height="60" as="geometry" />
        </mxCell>
        <mxCell id="YhQUO0_M6qB6URxOsc1M-23" style="edgeStyle=orthogonalEdgeStyle;rounded=0;orthogonalLoop=1;jettySize=auto;html=1;strokeColor=default;align=center;verticalAlign=middle;fontFamily=Helvetica;fontSize=10;fontColor=default;labelBackgroundColor=default;endArrow=open;endFill=0;entryX=1;entryY=0.5;entryDx=0;entryDy=0;strokeWidth=2;sketch=1;curveFitting=1;jiggle=2;" edge="1" parent="1" source="YhQUO0_M6qB6URxOsc1M-15" target="YhQUO0_M6qB6URxOsc1M-22">
          <mxGeometry relative="1" as="geometry" />
        </mxCell>
        <mxCell id="YhQUO0_M6qB6URxOsc1M-15" value="&lt;div&gt;&lt;span style=&quot;font-weight: normal; font-style: normal;&quot;&gt;«binary»&lt;/span&gt;&lt;/div&gt;&lt;font style=&quot;font-size: 12px;&quot;&gt;Data Content&lt;/font&gt;" style="rounded=0;whiteSpace=wrap;html=1;fontFamily=Helvetica;fontSize=10;fontColor=default;labelBackgroundColor=none;strokeWidth=1;fontStyle=3;shadow=0;sketch=1;curveFitting=1;jiggle=2;" vertex="1" parent="1">
          <mxGeometry x="1000" y="440" width="120" height="60" as="geometry" />
        </mxCell>
        <mxCell id="YhQUO0_M6qB6URxOsc1M-24" style="edgeStyle=orthogonalEdgeStyle;rounded=0;orthogonalLoop=1;jettySize=auto;html=1;strokeColor=default;align=center;verticalAlign=middle;fontFamily=Helvetica;fontSize=10;fontColor=default;labelBackgroundColor=default;endArrow=open;endFill=0;sketch=1;curveFitting=1;jiggle=2;" edge="1" parent="1" source="YhQUO0_M6qB6URxOsc1M-17" target="YhQUO0_M6qB6URxOsc1M-22">
          <mxGeometry relative="1" as="geometry">
            <mxPoint x="920" y="470" as="targetPoint" />
            <Array as="points">
              <mxPoint x="990" y="540" />
              <mxPoint x="990" y="470" />
            </Array>
          </mxGeometry>
        </mxCell>
        <mxCell id="YhQUO0_M6qB6URxOsc1M-17" value="[Not Found Error]" style="html=1;shape=mxgraph.sysml.flowFinal;strokeWidth=2;verticalLabelPosition=bottom;verticalAlignment=top;fontFamily=Helvetica;fontSize=10;labelBackgroundColor=none;fillColor=#f8cecc;strokeColor=#b85450;labelBorderColor=none;shadow=0;sketch=1;curveFitting=1;jiggle=2;" vertex="1" parent="1">
          <mxGeometry x="1040" y="520" width="40" height="40" as="geometry" />
        </mxCell>
        <mxCell id="YhQUO0_M6qB6URxOsc1M-21" style="edgeStyle=orthogonalEdgeStyle;rounded=0;orthogonalLoop=1;jettySize=auto;html=1;entryX=1;entryY=0.5;entryDx=0;entryDy=0;entryPerimeter=0;strokeColor=default;align=center;verticalAlign=middle;fontFamily=Helvetica;fontSize=10;fontColor=default;labelBackgroundColor=default;endArrow=open;endFill=0;exitX=1;exitY=0.5;exitDx=0;exitDy=0;sketch=1;curveFitting=1;jiggle=2;" edge="1" parent="1" source="YhQUO0_M6qB6URxOsc1M-12" target="YhQUO0_M6qB6URxOsc1M-17">
          <mxGeometry relative="1" as="geometry">
            <Array as="points">
              <mxPoint x="1140" y="350" />
              <mxPoint x="1140" y="540" />
            </Array>
          </mxGeometry>
        </mxCell>
        <mxCell id="YhQUO0_M6qB6URxOsc1M-25" value="[data not exist]" style="edgeLabel;html=1;align=center;verticalAlign=middle;resizable=0;points=[];fontFamily=Helvetica;fontSize=10;fontColor=default;labelBackgroundColor=default;fillColor=none;gradientColor=none;" vertex="1" connectable="0" parent="YhQUO0_M6qB6URxOsc1M-21">
          <mxGeometry x="-0.84" y="2" relative="1" as="geometry">
            <mxPoint x="27" y="2" as="offset" />
          </mxGeometry>
        </mxCell>
        <mxCell id="YhQUO0_M6qB6URxOsc1M-31" style="edgeStyle=orthogonalEdgeStyle;rounded=0;orthogonalLoop=1;jettySize=auto;html=1;strokeColor=default;align=center;verticalAlign=middle;fontFamily=Helvetica;fontSize=10;fontColor=default;labelBackgroundColor=default;endArrow=open;endFill=0;strokeWidth=2;sketch=1;curveFitting=1;jiggle=2;" edge="1" parent="1" source="YhQUO0_M6qB6URxOsc1M-22" target="YhQUO0_M6qB6URxOsc1M-28">
          <mxGeometry relative="1" as="geometry" />
        </mxCell>
        <mxCell id="YhQUO0_M6qB6URxOsc1M-22" value="Process response from TCP/IP network" style="rounded=1;whiteSpace=wrap;html=1;fontFamily=Helvetica;fontSize=10;fontColor=default;labelBackgroundColor=none;strokeWidth=2;fontStyle=3;labelBorderColor=none;sketch=1;curveFitting=1;jiggle=2;" vertex="1" parent="1">
          <mxGeometry x="830" y="440" width="120" height="60" as="geometry" />
        </mxCell>
        <mxCell id="YhQUO0_M6qB6URxOsc1M-26" style="edgeStyle=orthogonalEdgeStyle;rounded=0;orthogonalLoop=1;jettySize=auto;html=1;strokeColor=default;align=center;verticalAlign=middle;fontFamily=Helvetica;fontSize=11;fontColor=default;labelBackgroundColor=default;endArrow=open;endFill=0;exitX=0.5;exitY=1;exitDx=0;exitDy=0;strokeWidth=2;sketch=1;curveFitting=1;jiggle=2;" edge="1" parent="1" source="YhQUO0_M6qB6URxOsc1M-28" target="YhQUO0_M6qB6URxOsc1M-48">
          <mxGeometry relative="1" as="geometry">
            <mxPoint x="690" y="620" as="targetPoint" />
          </mxGeometry>
        </mxCell>
        <mxCell id="YhQUO0_M6qB6URxOsc1M-27" value="&lt;font style=&quot;font-size: 10px;&quot;&gt;[data exist]&lt;/font&gt;" style="edgeLabel;html=1;align=center;verticalAlign=middle;resizable=0;points=[];fontFamily=Helvetica;fontSize=10;fontColor=default;labelBackgroundColor=default;" vertex="1" connectable="0" parent="YhQUO0_M6qB6URxOsc1M-26">
          <mxGeometry x="-0.32" y="1" relative="1" as="geometry">
            <mxPoint y="-3" as="offset" />
          </mxGeometry>
        </mxCell>
        <mxCell id="YhQUO0_M6qB6URxOsc1M-28" value="" style="rhombus;whiteSpace=wrap;html=1;fontFamily=Helvetica;fontSize=11;fontColor=default;labelBackgroundColor=default;strokeWidth=2;sketch=1;curveFitting=1;jiggle=2;" vertex="1" parent="1">
          <mxGeometry x="860" y="520" width="60" height="60" as="geometry" />
        </mxCell>
        <mxCell id="YhQUO0_M6qB6URxOsc1M-29" style="edgeStyle=orthogonalEdgeStyle;rounded=0;orthogonalLoop=1;jettySize=auto;html=1;strokeColor=default;align=center;verticalAlign=middle;fontFamily=Helvetica;fontSize=10;fontColor=default;labelBackgroundColor=default;endArrow=open;endFill=0;exitX=0;exitY=0.5;exitDx=0;exitDy=0;sketch=1;curveFitting=1;jiggle=2;entryX=0.75;entryY=1;entryDx=0;entryDy=0;" edge="1" parent="1" source="YhQUO0_M6qB6URxOsc1M-28" target="YhQUO0_M6qB6URxOsc1M-33">
          <mxGeometry relative="1" as="geometry">
            <mxPoint x="540" y="730" as="targetPoint" />
          </mxGeometry>
        </mxCell>
        <mxCell id="YhQUO0_M6qB6URxOsc1M-30" value="[data not exist]" style="edgeLabel;html=1;align=center;verticalAlign=middle;resizable=0;points=[];fontFamily=Helvetica;fontSize=10;fontColor=default;labelBackgroundColor=default;fillColor=none;gradientColor=none;" vertex="1" connectable="0" parent="YhQUO0_M6qB6URxOsc1M-29">
          <mxGeometry x="-0.84" y="2" relative="1" as="geometry">
            <mxPoint x="-46" y="-2" as="offset" />
          </mxGeometry>
        </mxCell>
        <mxCell id="YhQUO0_M6qB6URxOsc1M-34" style="edgeStyle=orthogonalEdgeStyle;rounded=0;orthogonalLoop=1;jettySize=auto;html=1;strokeColor=default;align=center;verticalAlign=middle;fontFamily=Helvetica;fontSize=10;fontColor=default;labelBackgroundColor=default;endArrow=open;endFill=0;dashed=1;sketch=1;curveFitting=1;jiggle=2;" edge="1" parent="1" source="YhQUO0_M6qB6URxOsc1M-33" target="YhQUO0_M6qB6URxOsc1M-1">
          <mxGeometry relative="1" as="geometry" />
        </mxCell>
        <mxCell id="YhQUO0_M6qB6URxOsc1M-35" style="edgeStyle=orthogonalEdgeStyle;rounded=0;orthogonalLoop=1;jettySize=auto;html=1;strokeColor=default;align=center;verticalAlign=middle;fontFamily=Helvetica;fontSize=10;fontColor=default;labelBackgroundColor=default;endArrow=open;endFill=0;entryX=0.5;entryY=1;entryDx=0;entryDy=0;sketch=1;curveFitting=1;jiggle=2;" edge="1" parent="1" source="YhQUO0_M6qB6URxOsc1M-33" target="YhQUO0_M6qB6URxOsc1M-5">
          <mxGeometry relative="1" as="geometry" />
        </mxCell>
        <mxCell id="YhQUO0_M6qB6URxOsc1M-33" value="Get next node from list" style="rounded=1;whiteSpace=wrap;html=1;fontFamily=Helvetica;fontSize=10;fontColor=default;labelBackgroundColor=none;strokeWidth=2;fontStyle=3;labelBorderColor=none;sketch=1;curveFitting=1;jiggle=2;" vertex="1" parent="1">
          <mxGeometry x="610" y="440" width="120" height="60" as="geometry" />
        </mxCell>
        <mxCell id="YhQUO0_M6qB6URxOsc1M-45" value="[Not Found Error]" style="html=1;shape=mxgraph.sysml.flowFinal;strokeWidth=2;verticalLabelPosition=bottom;verticalAlignment=top;fontFamily=Helvetica;fontSize=10;labelBackgroundColor=none;fillColor=#f8cecc;strokeColor=#b85450;labelBorderColor=none;shadow=1;sketch=1;curveFitting=1;jiggle=2;" vertex="1" parent="1">
          <mxGeometry x="620" y="560" width="40" height="40" as="geometry" />
        </mxCell>
        <mxCell id="YhQUO0_M6qB6URxOsc1M-46" style="edgeStyle=orthogonalEdgeStyle;rounded=0;orthogonalLoop=1;jettySize=auto;html=1;strokeColor=default;align=center;verticalAlign=middle;fontFamily=Helvetica;fontSize=10;fontColor=default;labelBackgroundColor=default;endArrow=open;endFill=0;sketch=1;curveFitting=1;jiggle=2;exitX=0.25;exitY=1;exitDx=0;exitDy=0;" edge="1" parent="1" source="YhQUO0_M6qB6URxOsc1M-33" target="YhQUO0_M6qB6URxOsc1M-45">
          <mxGeometry relative="1" as="geometry" />
        </mxCell>
        <mxCell id="YhQUO0_M6qB6URxOsc1M-47" value="[end of list]" style="edgeLabel;html=1;align=center;verticalAlign=middle;resizable=0;points=[];fontFamily=Helvetica;fontSize=10;fontColor=default;labelBackgroundColor=default;fillColor=none;gradientColor=none;" vertex="1" connectable="0" parent="YhQUO0_M6qB6URxOsc1M-46">
          <mxGeometry x="-0.272" relative="1" as="geometry">
            <mxPoint y="4" as="offset" />
          </mxGeometry>
        </mxCell>
        <mxCell id="YhQUO0_M6qB6URxOsc1M-50" style="edgeStyle=orthogonalEdgeStyle;rounded=0;orthogonalLoop=1;jettySize=auto;html=1;strokeColor=default;align=center;verticalAlign=middle;fontFamily=Helvetica;fontSize=10;fontColor=default;labelBackgroundColor=default;endArrow=open;endFill=0;strokeWidth=2;sketch=1;curveFitting=1;jiggle=2;entryX=0.75;entryY=1;entryDx=0;entryDy=0;" edge="1" parent="1" source="YhQUO0_M6qB6URxOsc1M-48" target="JVHVPObcVi5ZBT4Kbtqd-9">
          <mxGeometry relative="1" as="geometry">
            <mxPoint x="730" y="650" as="targetPoint" />
          </mxGeometry>
        </mxCell>
        <mxCell id="YhQUO0_M6qB6URxOsc1M-48" value="Add content to repository" style="rounded=1;whiteSpace=wrap;html=1;fontFamily=Helvetica;fontSize=10;fontColor=default;labelBackgroundColor=none;strokeWidth=2;fontStyle=3;labelBorderColor=none;sketch=1;curveFitting=1;jiggle=2;" vertex="1" parent="1">
          <mxGeometry x="830" y="620" width="120" height="60" as="geometry" />
        </mxCell>
      </root>
    </mxGraphModel>
  </diagram>
</mxfile>
